<?xml version="1.0" encoding="UTF-8"?><svg id="_レイヤー_2" xmlns="http://www.w3.org/2000/svg" viewBox="0 0 1200 1200"><defs><style>.cls-1{fill:#fff;}.cls-2,.cls-3{fill:#4b4b4b;}.cls-4{fill:none;stroke:#4b4b4b;stroke-miterlimit:10;stroke-width:8px;}.cls-3{font-family:HiraKakuProN-W6-83pv-RKSJ-H, 'Hiragino Kaku Gothic ProN';font-size:72px;}</style></defs><rect class="cls-1" x="1" y="1" width="1198" height="1198"/><rect class="cls-4" x="55" y="63" width="1091" height="1091"/><g><path class="cls-2" d="M346.10023,280.87086c-.82987-.49019-1.88671-.51595-2.74153-.02496-.82987,.47811-1.35869,1.38364-1.35869,2.36483v138.35705c0,.99327,.52803,1.88671,1.35869,2.36482,.85562,.50307,1.91166,.47811,2.74153-.02496l115.90723-69.18455c.82987-.47811,1.32085-1.37077,1.32085-2.33908,0-.94335-.4902-1.84888-1.32085-2.327l-115.90723-69.18615Z"/><path class="cls-2" d="M385.49017,146.33716c-113.79435,0-206.05732,92.26297-206.05732,206.05732s92.26297,206.05732,206.05732,206.05732,206.05732-92.26297,206.05732-206.05732-92.26297-206.05732-206.05732-206.05732Zm0,360.60032c-85.22,0-154.54299-69.323-154.54299-154.54299s69.323-154.54299,154.54299-154.54299,154.54299,69.323,154.54299,154.54299-69.323,154.54299-154.54299,154.54299Z"/></g><g><path class="cls-2" d="M385.32068,681.55003c-113.6213,0-206.05732,92.43281-206.05732,206.05411s92.43602,206.06054,206.05732,206.06054,206.05411-92.43846,206.05411-206.06054c-.00002-113.6213-92.43202-206.05411-206.05411-206.05411Zm0,375.12574c-93.36973,0-169.07084-75.69869-169.07084-169.07084,0-93.36731,75.70111-169.07084,169.07084-169.07084s169.07085,75.70353,169.07085,169.07084c-.00002,93.37214-75.70356,169.07084-169.07085,169.07084Z"/><rect class="cls-2" x="337.76892" y="840.0548" width="95.10108" height="95.10431"/></g><text class="cls-3" transform="translate(745.76587 933.28467)"><tspan x="0" y="0">STOP</tspan></text><text class="cls-3" transform="translate(721.09058 390.28467)"><tspan x="0" y="0">START</tspan></text></svg>