<!--?xml version="1.0" encoding="utf-8"?-->
<!-- Generator: Adobe Illustrator 18.1.1, SVG Export Plug-In . SVG Version: 6.00 Build 0)  -->

<svg version="1.1" id="_x32_" xmlns="http://www.w3.org/2000/svg" xmlns:xlink="http://www.w3.org/1999/xlink" x="0px" y="0px" viewBox="0 0 512 512" style="enable-background:new 0 0 512 512;" xml:space="preserve">
<style type="text/css">
	.st0{fill:#4B4B4B;}
</style>
<g>
	<polygon class="st0" points="424.588,168.592 409.437,183.729 470.998,245.29 266.702,245.298 266.702,41.002 328.256,102.564 
		343.408,87.412 255.997,0 168.592,87.412 183.729,102.564 245.29,41.002 245.29,245.29 41.002,245.29 102.556,183.729 
		87.412,168.592 0,256.004 87.412,343.416 102.548,328.264 41.002,266.71 245.29,266.717 245.29,471.006 183.729,409.452 
		168.585,424.596 255.997,512 343.408,424.596 328.256,409.452 266.71,471.006 266.702,266.71 470.998,266.71 409.444,328.272 
		424.588,343.416 512,256.004 	"></polygon>
</g>
</svg>
